<?xml version="1.0" standalone="no"?>
<!DOCTYPE svg PUBLIC "-//W3C//DTD SVG 20010904//EN"
 "http://www.w3.org/TR/2001/REC-SVG-20010904/DTD/svg10.dtd">
<svg version="1.0" xmlns="http://www.w3.org/2000/svg"
 width="1112.000000pt" height="1112.000000pt" viewBox="0 0 1112.000000 1112.000000"
 preserveAspectRatio="xMidYMid meet">
<metadata>
Created by potrace 1.11, written by Peter Selinger 2001-2013
</metadata>
<g transform="translate(0.000000,1112.000000) scale(0.100000,-0.100000)"
fill="#000000" stroke="none">
<path d="M5799 9527 c10 -28 32 -80 50 -114 17 -35 31 -66 30 -69 0 -4 3 -10
8 -13 5 -3 20 -24 33 -46 32 -53 120 -157 189 -224 53 -51 254 -211 266 -211
6 0 86 -51 95 -60 18 -19 446 -230 466 -230 3 0 20 -6 37 -14 71 -32 130 -56
137 -56 4 0 25 -8 46 -17 22 -9 44 -18 49 -19 6 -1 57 -18 115 -38 58 -20 134
-45 170 -57 36 -11 72 -23 80 -26 8 -4 20 -7 26 -8 6 -2 72 -20 145 -40 74
-21 140 -38 147 -38 6 0 12 -3 12 -7 0 -3 8 -6 18 -7 9 0 28 -4 42 -8 51 -14
125 -32 250 -60 41 -9 84 -19 95 -21 11 -3 31 -7 45 -10 34 -7 322 -79 390
-98 30 -8 66 -18 80 -21 14 -4 32 -9 40 -12 19 -7 30 -11 55 -16 47 -11 391
-130 403 -139 6 -6 12 -7 12 -3 0 4 6 2 14 -4 8 -7 23 -13 33 -15 33 -7 263
-112 263 -121 0 -13 -338 -155 -465 -195 -22 -7 -44 -15 -50 -19 -5 -3 -15 -6
-22 -7 -13 -2 -107 -31 -133 -41 -8 -3 -19 -7 -25 -8 -5 -2 -30 -9 -55 -16
-25 -7 -47 -13 -50 -14 -3 -1 -25 -7 -50 -15 -25 -7 -49 -14 -55 -16 -5 -1
-82 -21 -170 -44 -88 -23 -169 -43 -180 -45 -59 -10 -398 -88 -433 -100 -8 -3
-21 13 -34 43 -48 111 -143 299 -193 383 -30 50 -55 95 -55 99 0 4 -9 15 -20
25 -11 10 -20 24 -20 32 0 7 -4 13 -8 13 -4 0 -16 15 -27 33 -10 17 -26 39
-34 47 -9 8 -32 35 -52 60 -132 163 -317 295 -497 354 -136 45 -327 53 -440
17 -18 -5 -36 -10 -40 -10 -72 -8 -275 -120 -370 -205 -111 -98 -250 -265
-316 -378 -15 -27 -31 -48 -35 -48 -4 0 -8 -6 -8 -12 0 -7 -19 -44 -42 -83
-22 -38 -41 -75 -41 -81 0 -6 -6 -17 -14 -23 -8 -7 -17 -24 -21 -39 -4 -15
-10 -29 -13 -32 -10 -8 -42 -79 -42 -94 0 -8 -6 -19 -14 -25 -8 -7 -17 -23
-20 -37 -4 -13 -17 -48 -30 -77 -36 -79 -130 -337 -181 -498 -70 -216 -75
-234 -80 -255 -2 -10 -16 -59 -30 -109 -25 -88 -113 -431 -121 -470 -6 -29
-11 -55 -23 -105 -5 -25 -13 -60 -16 -79 -3 -19 -7 -37 -9 -40 -2 -3 -7 -22
-10 -41 -3 -19 -8 -46 -12 -60 -3 -14 -10 -43 -15 -65 -5 -22 -11 -49 -14 -60
-3 -11 -7 -29 -9 -40 -3 -11 -16 -64 -30 -118 -15 -55 -28 -106 -29 -115 -1
-10 -5 -21 -9 -27 -5 -10 -19 -66 -20 -82 0 -5 -4 -15 -9 -24 -4 -9 -10 -27
-13 -40 -2 -13 -19 -69 -36 -124 -17 -55 -33 -104 -34 -110 -1 -5 -4 -14 -7
-20 -4 -5 -17 -44 -29 -85 -13 -41 -31 -92 -40 -115 -26 -60 -33 -78 -36 -96
-2 -8 -10 -29 -19 -45 -8 -16 -15 -32 -15 -37 0 -13 -53 -128 -118 -256 -59
-117 -114 -207 -137 -223 -7 -5 -7 -8 0 -8 6 0 2 -5 -8 -11 -14 -8 -22 -6 -37
13 -11 13 -22 31 -25 41 -4 9 -11 17 -16 17 -5 0 -9 4 -9 9 0 4 -21 46 -48 92
-26 46 -53 98 -61 114 -7 17 -22 46 -32 65 -9 19 -40 94 -68 165 -29 72 -56
138 -61 147 -6 10 -10 25 -10 33 0 8 -5 23 -10 33 -9 15 -86 244 -95 282 -2 8
-24 86 -49 172 -25 86 -48 165 -49 175 -2 10 -7 25 -10 33 -6 17 -26 94 -32
125 -2 11 -6 29 -9 40 -12 48 -38 162 -43 190 -2 17 -7 37 -10 45 -4 8 -8 29
-10 45 -4 25 -21 102 -98 428 -2 10 -7 27 -10 37 -3 10 -7 27 -9 37 -2 10 -20
76 -41 146 -20 71 -38 136 -40 145 -2 9 -8 28 -13 42 -5 14 -11 30 -12 35 -4
15 -6 23 -40 125 -17 52 -32 102 -34 111 -15 62 -139 385 -201 524 -85 190
-255 498 -295 535 -3 3 -17 21 -30 40 -43 61 -53 72 -150 170 -52 53 -126 118
-163 144 -62 44 -213 121 -255 131 -205 49 -320 52 -457 13 -22 -6 -42 -12
-45 -13 -25 -5 -89 -31 -107 -42 -12 -8 -28 -16 -35 -17 -14 -2 -96 -53 -136
-83 -102 -77 -202 -179 -282 -284 -56 -73 -185 -275 -197 -308 -4 -9 -9 -18
-13 -21 -15 -12 -210 -439 -210 -460 0 -6 -9 -27 -19 -48 -10 -20 -19 -39 -19
-42 0 -3 -5 -18 -11 -33 -6 -16 -11 -35 -11 -43 0 -8 -4 -14 -8 -14 -5 0 -9
-6 -9 -12 0 -7 -21 -74 -46 -148 -38 -110 -91 -278 -103 -325 -2 -5 -17 -62
-34 -125 -18 -63 -33 -122 -35 -130 -2 -8 -4 -15 -5 -15 -1 0 -3 -7 -5 -15 -1
-8 -10 -42 -19 -76 -8 -33 -18 -71 -20 -85 -2 -13 -5 -24 -6 -24 -1 0 -3 -7
-5 -15 -2 -8 -8 -35 -14 -60 -7 -25 -13 -57 -16 -71 -2 -15 -10 -51 -18 -80
-7 -30 -13 -64 -12 -76 1 -13 -2 -23 -7 -23 -4 0 -7 -3 -6 -7 1 -7 -3 -33 -18
-103 -1 -8 -10 -41 -18 -72 -9 -32 -18 -72 -21 -89 -3 -18 -8 -35 -10 -39 -2
-3 -6 -17 -8 -31 -8 -38 -47 -192 -54 -209 -3 -8 -7 -17 -8 -20 0 -3 -7 -30
-15 -60 -7 -30 -19 -70 -27 -87 -7 -18 -10 -33 -7 -33 4 0 1 -7 -6 -15 -7 -8
-10 -15 -7 -15 3 0 -3 -26 -14 -57 -11 -32 -22 -62 -23 -68 -3 -13 -26 -86
-33 -105 -3 -8 -7 -19 -9 -25 -3 -12 -81 -222 -93 -250 -5 -11 -14 -33 -22
-50 -7 -16 -13 -32 -14 -35 0 -3 -6 -14 -12 -25 -6 -11 -12 -24 -13 -30 -1 -5
-11 -27 -21 -47 -18 -35 -19 -70 -19 -712 0 -669 0 -675 20 -673 11 1 20 5 20
9 0 4 9 8 19 8 42 0 216 91 306 160 131 100 308 316 416 505 54 96 149 280
149 289 0 2 15 37 34 78 18 40 41 93 50 118 10 25 23 59 31 75 17 41 40 99 40
105 0 3 3 10 6 15 6 9 63 174 64 185 0 3 3 10 6 15 4 6 10 24 14 40 9 34 10
35 18 55 3 8 20 62 37 120 17 58 38 128 47 155 8 28 17 57 18 65 2 8 18 67 35
130 17 63 33 126 36 140 3 14 11 48 19 75 8 28 16 61 19 75 10 55 35 166 40
180 3 8 7 29 10 45 3 17 7 41 10 55 3 14 8 34 10 45 2 11 12 54 22 95 9 41 17
81 17 88 0 6 4 12 9 12 5 0 7 4 4 8 -3 5 -1 26 5 47 6 20 12 45 14 54 2 9 11
43 20 76 9 33 18 67 20 75 2 8 4 15 5 15 1 0 3 9 5 20 2 11 11 45 20 75 36
121 77 256 82 270 4 8 5 20 4 27 -1 6 3 14 9 18 5 3 10 12 10 20 0 8 5 26 12
42 6 15 12 30 12 33 5 23 73 207 107 285 9 22 27 65 40 95 13 30 33 75 46 99
13 24 23 50 23 57 0 8 4 14 8 14 5 0 16 18 26 41 25 56 128 209 137 203 30
-18 219 -354 219 -388 0 -8 3 -16 8 -18 4 -1 17 -28 29 -58 12 -30 28 -68 34
-85 7 -16 13 -32 14 -35 1 -3 7 -18 14 -35 22 -52 140 -401 145 -428 2 -7 9
-32 16 -57 7 -25 15 -51 16 -58 1 -8 6 -21 10 -30 4 -9 8 -21 10 -27 1 -5 7
-30 13 -55 7 -25 14 -52 16 -60 13 -45 59 -223 71 -277 31 -139 43 -191 48
-219 3 -16 12 -57 19 -91 8 -35 12 -63 10 -63 -3 0 -1 -6 4 -12 6 -7 10 -20
10 -28 0 -16 71 -305 81 -330 3 -8 6 -22 8 -30 2 -22 102 -364 126 -435 11
-33 21 -64 23 -70 1 -5 5 -17 8 -25 3 -8 20 -55 36 -105 31 -93 106 -293 136
-361 9 -22 21 -48 25 -59 16 -37 160 -330 177 -360 55 -92 99 -161 109 -173 7
-6 16 -21 19 -32 3 -11 11 -20 16 -20 5 0 9 -5 9 -11 0 -7 11 -22 25 -35 14
-13 25 -27 25 -31 0 -5 37 -47 83 -94 76 -79 168 -157 242 -204 28 -18 124
-67 135 -69 3 -1 11 -5 17 -9 7 -5 21 -10 30 -12 10 -3 36 -9 58 -15 121 -32
197 -39 305 -26 112 13 180 34 295 91 111 55 200 121 298 222 77 79 187 215
187 232 0 5 3 11 8 13 7 3 35 44 77 112 35 57 125 230 125 239 0 6 6 18 13 26
7 9 26 45 41 81 15 36 34 79 42 97 43 95 119 300 174 468 35 105 65 197 68
205 3 8 6 21 8 28 1 8 6 21 10 30 9 22 10 26 29 102 2 8 4 16 5 18 2 1 4 7 5
12 1 6 3 11 5 13 1 1 3 9 5 17 10 47 46 174 50 178 3 3 15 -7 28 -23 25 -33
101 -110 167 -170 94 -85 316 -232 455 -300 22 -11 43 -24 46 -28 3 -5 9 -8
13 -8 3 1 49 -19 102 -44 54 -25 103 -45 110 -45 8 0 14 -4 14 -9 0 -5 12 -12
28 -16 15 -3 52 -17 82 -30 30 -13 82 -33 115 -45 33 -12 69 -26 80 -30 46
-18 81 -31 100 -34 11 -3 58 -18 105 -35 84 -29 207 -67 245 -76 131 -28 201
-64 209 -107 8 -45 205 -451 248 -512 5 -6 31 -47 60 -91 52 -81 135 -187 202
-259 20 -21 35 -40 33 -42 -2 -2 -75 -19 -163 -38 -87 -20 -174 -40 -192 -47
-18 -6 -39 -8 -47 -5 -8 3 -15 1 -15 -4 0 -6 -6 -10 -14 -10 -14 0 -222 -56
-383 -103 -45 -14 -85 -22 -88 -19 -3 3 -5 -1 -5 -8 0 -7 -3 -11 -6 -7 -3 3
-26 -3 -50 -13 -24 -11 -44 -17 -44 -15 0 4 -14 0 -95 -31 -11 -4 -24 -8 -30
-10 -21 -5 -202 -72 -240 -89 -22 -9 -44 -18 -50 -19 -5 -1 -32 -12 -59 -24
-27 -12 -50 -22 -52 -22 -2 0 -32 -13 -66 -30 -34 -16 -67 -30 -75 -30 -7 0
-13 -3 -13 -7 0 -5 -21 -17 -48 -27 -26 -11 -49 -22 -52 -26 -3 -3 -41 -25
-85 -49 -77 -41 -260 -158 -287 -184 -7 -6 -29 -24 -48 -38 -80 -61 -218 -207
-280 -298 -74 -108 -159 -298 -137 -307 7 -2 494 -3 1082 -1 767 2 1080 6
1105 14 53 17 212 63 240 69 38 9 42 10 90 23 25 7 54 15 65 17 11 2 47 10 80
18 33 9 71 17 85 20 59 12 86 18 149 32 36 9 73 17 81 19 37 7 330 85 351 94
13 5 26 8 29 8 29 -1 459 141 625 206 44 18 82 32 85 32 3 1 28 11 55 24 28
12 73 32 100 43 28 12 54 25 60 30 5 4 17 8 26 8 10 0 19 3 21 8 2 4 57 34
122 67 66 33 124 65 130 70 6 6 27 19 46 29 47 26 218 148 252 180 15 14 29
26 31 26 7 0 131 126 162 165 83 104 168 253 194 340 7 22 16 49 21 60 8 19
11 34 28 130 16 91 7 271 -18 370 -6 22 -12 47 -14 55 -9 34 -50 129 -84 195
-68 130 -196 281 -332 391 -19 16 -40 34 -47 40 -11 10 -205 139 -258 171 -25
16 -334 173 -340 173 -3 1 -20 7 -40 16 -19 8 -37 14 -40 14 -3 0 -20 7 -38
17 -17 9 -36 18 -42 19 -5 2 -75 28 -155 58 -80 31 -145 56 -145 55 0 -1 -30
9 -75 24 -68 23 -263 82 -370 111 -98 27 -125 35 -220 61 -30 8 -57 16 -60 16
-3 1 -9 3 -15 4 -23 6 -112 26 -130 29 -11 3 -42 10 -70 16 -27 6 -59 13 -69
16 -21 4 -35 21 -37 44 -1 18 -1 20 -33 142 -14 54 -27 110 -30 125 -2 16 -5
28 -6 28 -1 0 -3 9 -5 20 -2 11 -7 36 -11 55 -5 19 -9 40 -10 45 -1 6 -3 13
-4 18 -1 4 -3 15 -5 25 -1 9 -4 24 -8 32 -7 18 -21 89 -22 110 0 8 -4 21 -8
28 -5 6 -6 12 -3 12 3 0 1 11 -4 26 -6 14 -12 39 -15 55 -3 17 -7 36 -8 42 -3
14 123 47 351 92 15 3 45 11 67 17 22 6 45 12 50 14 41 8 153 36 165 41 8 3
22 7 30 9 8 1 40 10 70 19 30 9 80 23 110 31 88 23 372 114 407 130 17 8 37
14 45 14 8 0 18 3 22 8 4 4 11 7 14 7 4 0 21 5 37 12 34 13 57 20 68 22 4 0
22 8 40 18 17 9 35 18 40 19 4 1 10 3 15 4 4 1 10 2 15 1 4 0 7 3 7 7 0 5 6 9
13 9 6 0 35 11 62 23 28 13 52 24 55 25 9 2 275 135 290 144 8 6 51 31 95 57
44 26 82 50 85 54 3 3 23 17 45 30 22 13 46 30 53 37 7 7 32 26 55 43 52 37
237 224 237 239 0 6 4 11 9 11 8 0 58 74 94 140 10 19 25 44 31 55 17 26 71
185 87 255 13 57 16 259 5 343 -3 26 -13 66 -21 90 -8 23 -15 47 -15 53 0 6
-10 33 -22 60 -12 27 -22 51 -23 54 0 11 -98 180 -114 197 -9 10 -33 39 -53
65 -53 65 -92 103 -183 181 -97 83 -88 76 -161 123 -32 21 -61 41 -64 44 -3 3
-16 12 -30 19 -127 74 -195 111 -250 136 -36 17 -66 33 -68 38 -2 4 -10 7 -18
7 -7 0 -28 8 -46 18 -18 10 -64 30 -103 46 -38 15 -88 35 -110 44 -21 10 -42
17 -45 18 -3 0 -12 4 -20 7 -54 23 -399 142 -440 152 -8 2 -27 8 -42 14 -16 6
-28 8 -28 5 0 -4 -6 -2 -12 4 -7 5 -27 12 -45 15 -17 3 -37 8 -42 12 -6 3 -19
8 -29 10 -9 1 -37 8 -62 15 -25 7 -52 14 -60 16 -8 2 -67 17 -130 34 -115 30
-229 56 -285 66 -16 3 -43 9 -60 14 -16 5 -42 12 -57 15 -28 5 -55 11 -93 19
-11 3 -35 10 -54 15 -19 6 -37 9 -39 6 -3 -3 -10 -1 -16 4 -7 6 -24 12 -39 15
-16 3 -69 17 -120 31 -51 15 -99 29 -107 30 -8 2 -31 9 -50 14 -23 8 -382 11
-1102 11 l-1067 0 18 -53z m1016 -2344 c51 -75 169 -302 162 -310 -3 -3 -66
-32 -139 -65 -136 -61 -198 -91 -233 -111 -73 -43 -177 -98 -180 -95 -2 2 4
19 14 38 9 19 25 58 35 85 11 28 26 66 35 85 8 19 14 38 13 43 -1 4 2 7 8 7 6
0 10 5 10 11 0 23 94 201 183 344 30 49 41 45 92 -32z m585 -1637 c9 -42 16
-76 15 -76 -15 0 -195 84 -195 90 0 8 108 60 125 60 8 0 15 5 15 12 0 34 24
-18 40 -86z m1736 -1922 c77 -26 284 -104 339 -128 28 -13 79 -36 114 -52 60
-26 62 -29 40 -38 -13 -6 -27 -14 -30 -19 -3 -5 -8 -8 -10 -7 -6 2 -44 -13
-113 -45 -33 -15 -89 -38 -125 -52 -36 -13 -73 -27 -81 -30 -8 -3 -17 -7 -20
-8 -3 -1 -18 -7 -33 -13 -16 -7 -32 -12 -37 -12 -5 0 -21 -5 -37 -12 -53 -22
-53 -22 -54 70 0 48 -2 149 -3 225 -2 75 -2 137 -1 137 1 0 24 -7 51 -16z"/>
</g>
</svg>
