<svg version="1.1" viewBox="0.0 0.0 1920.0 100.0" fill="none" stroke="none" stroke-linecap="square" stroke-miterlimit="10" xmlns:xlink="http://www.w3.org/1999/xlink" xmlns="http://www.w3.org/2000/svg"><clipPath id="p.0"><path d="m0 0l1920.0 0l0 100.0l-1920.0 0l0 -100.0z" clip-rule="nonzero"/></clipPath><g clip-path="url(#p.0)"><path fill="#000000" fill-opacity="0.0" d="m0 0l1920.0 0l0 100.0l-1920.0 0z" fill-rule="evenodd"/><defs><linearGradient id="p.1" gradientUnits="userSpaceOnUse" gradientTransform="matrix(10.000396420695944 0.0 0.0 10.000396420695944 0.0 0.0)" spreadMethod="pad" x1="-13.60969772915037" y1="-6.390423394081557E-4" x2="-13.609733611914255" y2="9.999757378292161"><stop offset="0.0" stop-color="#660000"/><stop offset="0.5" stop-color="#cc0000"/><stop offset="1.0" stop-color="#ffeda1"/></linearGradient></defs><path fill="url(#p.1)" d="m-136.10237 0.001539895l2190.7715 0l0 100.0l-2190.7715 0z" fill-rule="evenodd"/><path fill="#5c0403" d="m-136.10237 8.2624675E-4l2190.7715 0l0 14.110236l-2190.7715 0z" fill-rule="evenodd"/><path fill="#900101" d="m-136.10237 14.11718l2190.7715 0l0 14.110237l-2190.7715 0z" fill-rule="evenodd"/><path fill="#b00001" d="m-136.10237 28.233534l2190.7715 0l0 14.110235l-2190.7715 0z" fill-rule="evenodd"/><path fill="#ca0201" d="m-136.10237 42.349888l2190.7715 0l0 14.110237l-2190.7715 0z" fill-rule="evenodd"/><path fill="#dd5438" d="m-136.10237 56.466244l2190.7715 0l0 14.110233l-2190.7715 0z" fill-rule="evenodd"/><path fill="#ec9061" d="m-136.10237 70.582596l2190.7715 0l0 14.110237l-2190.7715 0z" fill-rule="evenodd"/><path fill="#f9ce8b" d="m-136.10237 84.69895l2190.7715 0l0 14.110237l-2190.7715 0z" fill-rule="evenodd"/></g></svg>